<svg class="plate" viewBox="0 0 720 500" role="img" aria-labelledby="erdos-243-squares-title" focusable="false" data-plate="erdos-243-squares" data-underdrawing="none">
  <title id="erdos-243-squares-title">Erdős #243, the last step of the cubic-rate proof. Above, two records of successive tails reduced modulo 7: numerators 1, 6, 0, 2 under the rule 2n(n+1)(n+2) + 1, and 4, 5, 0, 1 under 2n(n+1)(n+2) - 1. Beneath the zero the denominator is 5 or 6; the denominator d just before the zero is ringed in red. A bracket over the next two updates reads d squared = 2; a bracket over the preceding update reads d + 2 = (d0 + 3) squared, or 2 (d0 - 1) squared. Below, the seven residues are the candidates for d, each with an arrow to its square: arrows land only on the hatched 0, 1, 2 and 4, and the two red arrows into 2 come from 3 and 4. Under each candidate stands d + 2, hatched when it is a square; the red +2 arrows from 3 and 4 land on 5 and 6, which are not squares, so no denominator serves both sides.</title>
  <g class="pl-stage" data-stage="1" data-until="2">
  <text class="pl-text pl-text--ink pl-text--body" x="360" y="54" text-anchor="middle">1/8 + 1/16 + 1/103 + 1/5305 + ⋯ = <tspan class="pl-var">p</tspan>/<tspan class="pl-var">q</tspan></text>
  <text class="pl-text pl-text--ink pl-text--body" x="150" y="126.9" text-anchor="middle"><tspan class="pl-var">p</tspan></text>
  <path class="pl-bar pl-bar--ink" d="M142.69 132L157.31 132"/>
  <text class="pl-text pl-text--ink pl-text--body" x="150" y="148.7" text-anchor="middle"><tspan class="pl-var">q</tspan></text>
  <text class="pl-text pl-text--ink pl-text--body" x="262" y="126.9" text-anchor="middle">8<tspan class="pl-var">p</tspan> − <tspan class="pl-var">q</tspan></text>
  <path class="pl-bar pl-bar--ink" d="M230.89 132L293.11 132"/>
  <text class="pl-text pl-text--ink pl-text--body" x="262" y="148.7" text-anchor="middle">8<tspan class="pl-var">q</tspan></text>
  <text class="pl-text pl-text--ink pl-text--body" x="410" y="126.9" text-anchor="middle">128<tspan class="pl-var">p</tspan> − 24<tspan class="pl-var">q</tspan></text>
  <path class="pl-bar pl-bar--ink" d="M359.85 132L460.15 132"/>
  <text class="pl-text pl-text--ink pl-text--body" x="410" y="148.7" text-anchor="middle">128<tspan class="pl-var">q</tspan></text>
  <text class="pl-text pl-text--ink pl-text--body" x="590" y="126.9" text-anchor="middle">13184<tspan class="pl-var">p</tspan> − 2600<tspan class="pl-var">q</tspan></text>
  <path class="pl-bar pl-bar--ink" d="M520.81 132L659.19 132"/>
  <text class="pl-text pl-text--ink pl-text--body" x="590" y="148.7" text-anchor="middle">13184<tspan class="pl-var">q</tspan></text>
  <path class="pl-line" d="M167.36 132L217.84 132"/>
  <path class="pl-dot" d="M220.8 132L212.8 135.2L214.8 132L212.8 128.8Z"/>
  <text class="pl-text pl-text--small" x="194.1" y="123" text-anchor="middle">− 1/8</text>
  <path class="pl-line" d="M303.16 132L346.8 132"/>
  <path class="pl-dot" d="M349.8 132L341.8 135.2L343.8 132L341.8 128.8Z"/>
  <text class="pl-text pl-text--small" x="326.5" y="123" text-anchor="middle">− 1/16</text>
  <path class="pl-line" d="M470.2 132L507.76 132"/>
  <path class="pl-dot" d="M510.8 132L502.8 135.2L504.8 132L502.8 128.8Z"/>
  <text class="pl-text pl-text--small" x="490.5" y="123" text-anchor="middle">− 1/103</text>
  <text class="pl-text" x="104" y="137" text-anchor="end">tail</text>
  </g>
  <g class="pl-stage" data-stage="2" data-until="2">
  <text class="pl-text pl-text--ink pl-text--body" x="240" y="268" text-anchor="middle">1</text>
  <text class="pl-text pl-text--ink pl-text--body" x="300" y="268" text-anchor="middle">4</text>
  <text class="pl-text pl-text--ink pl-text--body" x="360" y="268" text-anchor="middle">10</text>
  <text class="pl-text pl-text--ink pl-text--body" x="420" y="268" text-anchor="middle">20</text>
  <text class="pl-text pl-text--ink pl-text--body" x="480" y="268" text-anchor="middle">35</text>
  <text class="pl-text" x="196" y="267" text-anchor="end"><tspan class="pl-var">n</tspan>(<tspan class="pl-var">n</tspan>+1)(<tspan class="pl-var">n</tspan>+2)/6</text>
  <text class="pl-text pl-text--ink pl-text--body" x="270" y="306" text-anchor="middle">3</text>
  <text class="pl-text pl-text--ink pl-text--body" x="330" y="306" text-anchor="middle">6</text>
  <text class="pl-text pl-text--ink pl-text--body" x="390" y="306" text-anchor="middle">10</text>
  <text class="pl-text pl-text--ink pl-text--body" x="450" y="306" text-anchor="middle">15</text>
  <text class="pl-text" x="196" y="305" text-anchor="end">Δ</text>
  <text class="pl-text pl-text--ink pl-text--body" x="300" y="344" text-anchor="middle">3</text>
  <text class="pl-text pl-text--ink pl-text--body" x="360" y="344" text-anchor="middle">4</text>
  <text class="pl-text pl-text--ink pl-text--body" x="420" y="344" text-anchor="middle">5</text>
  <text class="pl-text" x="196" y="343" text-anchor="end">Δ<tspan class="pl-sup" dy="-0.42em">2</tspan></text>
  <text class="pl-text pl-text--ink pl-text--body" x="330" y="382" text-anchor="middle">1</text>
  <text class="pl-text pl-text--ink pl-text--body" x="390" y="382" text-anchor="middle">1</text>
  <text class="pl-text" x="196" y="381" text-anchor="end">Δ<tspan class="pl-sup" dy="-0.42em">3</tspan></text>
  <text class="pl-text pl-text--key pl-text--large" x="360" y="420" text-anchor="middle">0</text>
  <text class="pl-text" x="196" y="419" text-anchor="end">Δ<tspan class="pl-sup" dy="-0.42em">4</tspan></text>
  <text class="pl-text" x="522" y="268">ratio 1 + 3/<tspan class="pl-var">n</tspan></text>
  </g>
  <g class="pl-stage" data-stage="3">
  <text class="pl-text" x="118" y="118" text-anchor="end">numerator</text>
  <text class="pl-text" x="118" y="166" text-anchor="end">denominator</text>
  <text class="pl-text pl-text--small" x="118" y="188" text-anchor="end">mod 7</text>
  <text class="pl-text pl-text--small" x="118" y="86" text-anchor="end"><tspan class="pl-var">n</tspan> mod 7</text>
  <path class="pl-grid" d="M127 86L341 86M127 130L341 130M127 178L341 178M127 86L127 178M183 86L183 178M239 86L239 178M295 86L295 178M341 86L341 178"/>
  <text class="pl-text pl-text--ink pl-text--body" x="234" y="44" text-anchor="middle">2<tspan class="pl-var">n</tspan>(<tspan class="pl-var">n</tspan>+1)(<tspan class="pl-var">n</tspan>+2) + 1</text>
  <text class="pl-text pl-text--small" x="150" y="86" text-anchor="middle">0</text>
  <text class="pl-text pl-text--ink pl-text--large" x="150" y="119" text-anchor="middle">1</text>
  <text class="pl-text pl-text--small" x="206" y="86" text-anchor="middle">1</text>
  <text class="pl-text pl-text--ink pl-text--large" x="206" y="119" text-anchor="middle">6</text>
  <text class="pl-text pl-text--small" x="262" y="86" text-anchor="middle">2</text>
  <text class="pl-text pl-text--ink pl-text--large" x="262" y="119" text-anchor="middle">0</text>
  <text class="pl-text pl-text--small" x="318" y="86" text-anchor="middle">3</text>
  <text class="pl-text pl-text--ink pl-text--large" x="318" y="119" text-anchor="middle">2</text>
  <g class="pl-tech">
  <text class="pl-text pl-text--small" x="150" y="64" text-anchor="middle">1</text>
  <text class="pl-text pl-text--small" x="206" y="64" text-anchor="middle">13</text>
  <text class="pl-text pl-text--small" x="262" y="64" text-anchor="middle">49</text>
  <text class="pl-text pl-text--small" x="318" y="64" text-anchor="middle">121</text>
  </g>
  <path class="pl-grid" d="M425 86L639 86M425 130L639 130M425 178L639 178M425 86L425 178M481 86L481 178M537 86L537 178M593 86L593 178M639 86L639 178"/>
  <text class="pl-text pl-text--ink pl-text--body" x="532" y="44" text-anchor="middle">2<tspan class="pl-var">n</tspan>(<tspan class="pl-var">n</tspan>+1)(<tspan class="pl-var">n</tspan>+2) − 1</text>
  <text class="pl-text pl-text--small" x="448" y="86" text-anchor="middle">1</text>
  <text class="pl-text pl-text--ink pl-text--large" x="448" y="119" text-anchor="middle">4</text>
  <text class="pl-text pl-text--small" x="504" y="86" text-anchor="middle">2</text>
  <text class="pl-text pl-text--ink pl-text--large" x="504" y="119" text-anchor="middle">5</text>
  <text class="pl-text pl-text--small" x="560" y="86" text-anchor="middle">3</text>
  <text class="pl-text pl-text--ink pl-text--large" x="560" y="119" text-anchor="middle">0</text>
  <text class="pl-text pl-text--small" x="616" y="86" text-anchor="middle">4</text>
  <text class="pl-text pl-text--ink pl-text--large" x="616" y="119" text-anchor="middle">1</text>
  <g class="pl-tech">
  <text class="pl-text pl-text--small" x="448" y="64" text-anchor="middle">11</text>
  <text class="pl-text pl-text--small" x="504" y="64" text-anchor="middle">47</text>
  <text class="pl-text pl-text--small" x="560" y="64" text-anchor="middle">119</text>
  <text class="pl-text pl-text--small" x="616" y="64" text-anchor="middle">239</text>
  </g>
  </g>
  <g class="pl-stage" data-stage="4">
  <text class="pl-text pl-text--ink pl-text--body" x="150" y="166" text-anchor="middle"><tspan class="pl-var">d</tspan><tspan class="pl-sup" dy="0.3em">0</tspan></text>
  <circle class="pl-edge pl-edge--key" cx="206" cy="160" r="13.5"/>
  <text class="pl-text pl-text--key pl-text--large" x="206" y="166" text-anchor="middle"><tspan class="pl-var">d</tspan></text>
  <text class="pl-text pl-text--ink pl-text--large" x="262" y="167" text-anchor="middle">5</text>
  <path class="pl-line pl-line--key" d="M194 184L194 188L330 188L330 184"/>
  <text class="pl-text pl-text--key pl-text--body" x="262" y="205" text-anchor="middle"><tspan class="pl-var">d</tspan><tspan class="pl-sup" dy="-0.42em">2</tspan><tspan dy="0.42em"> = 2</tspan></text>
  <text class="pl-text pl-text--ink pl-text--body" x="448" y="166" text-anchor="middle"><tspan class="pl-var">d</tspan><tspan class="pl-sup" dy="0.3em">0</tspan></text>
  <circle class="pl-edge pl-edge--key" cx="504" cy="160" r="13.5"/>
  <text class="pl-text pl-text--key pl-text--large" x="504" y="166" text-anchor="middle"><tspan class="pl-var">d</tspan></text>
  <text class="pl-text pl-text--ink pl-text--large" x="560" y="167" text-anchor="middle">6</text>
  <path class="pl-line pl-line--key" d="M492 184L492 188L628 188L628 184"/>
  <text class="pl-text pl-text--key pl-text--body" x="560" y="205" text-anchor="middle"><tspan class="pl-var">d</tspan><tspan class="pl-sup" dy="-0.42em">2</tspan><tspan dy="0.42em"> = 2</tspan></text>
  </g>
  <g class="pl-stage" data-stage="5">
  <circle class="pl-ground" cx="162" cy="378" r="16.5"/>
  <circle class="pl-ground" cx="232" cy="378" r="16.5"/>
  <circle class="pl-ground" cx="302" cy="378" r="16.5"/>
  <circle class="pl-ground" cx="372" cy="378" r="16.5"/>
  <circle class="pl-ground" cx="442" cy="378" r="16.5"/>
  <circle class="pl-ground" cx="512" cy="378" r="16.5"/>
  <circle class="pl-ground" cx="582" cy="378" r="16.5"/>
  <path class="pl-hatch" d="M149.7 368.9L161.3 362.8M147.4 373.5L166.5 363.4M146.8 377.3L169.9 365M146.9 380.6L172.5 366.9M147.8 383.5L174.5 369.3M149.1 386.2L176 371.9M151 388.6L176.9 374.8M153.5 390.7L177.3 378M156.7 392.3L176.8 381.7M161.4 393.3L175 386.1M219.5 369.1L231.6 362.7M217.3 373.7L236.7 363.4M216.7 377.4L240 365M217 380.7L242.7 367M217.8 383.6L244.6 369.4M219.2 386.3L246 372M221.1 388.7L247 375M223.6 390.8L247.3 378.2M226.9 392.4L246.8 381.8M231.7 393.3L244.8 386.3M289.4 369.4L301.9 362.7M287.3 373.9L306.8 363.5M286.7 377.6L310.2 365.1M287 380.8L312.8 367.1M287.9 383.8L314.7 369.5M289.3 386.4L316.1 372.2M291.2 388.8L317 375.1M293.8 390.8L317.3 378.3M297.1 392.5L316.7 382M301.9 393.3L314.7 386.5M429.1 369.8L442.5 362.7M427.2 374.2L447.2 363.6M426.7 377.9L450.4 365.3M427.1 381.1L453 367.3M428 384L454.8 369.7M429.4 386.7L456.2 372.4M431.4 389L457.1 375.4M434 391L457.2 378.7M437.4 392.6L456.6 382.4M442.6 393.3L454.4 387"/>
  <circle class="pl-edge" cx="162" cy="378" r="16.5"/>
  <text class="pl-text pl-text--ink pl-text--body" x="162" y="384" text-anchor="middle">0</text>
  <circle class="pl-edge" cx="232" cy="378" r="16.5"/>
  <text class="pl-text pl-text--ink pl-text--body" x="232" y="384" text-anchor="middle">1</text>
  <circle class="pl-edge" cx="302" cy="378" r="16.5"/>
  <text class="pl-text pl-text--ink pl-text--body" x="302" y="384" text-anchor="middle">2</text>
  <circle class="pl-edge pl-edge--key" cx="372" cy="378" r="16.5"/>
  <text class="pl-text pl-text--ink pl-text--body" x="372" y="384" text-anchor="middle">3</text>
  <circle class="pl-edge pl-edge--key" cx="442" cy="378" r="16.5"/>
  <text class="pl-text pl-text--ink pl-text--body" x="442" y="384" text-anchor="middle">4</text>
  <circle class="pl-edge" cx="512" cy="378" r="16.5"/>
  <text class="pl-text pl-text--ink pl-text--body" x="512" y="384" text-anchor="middle">5</text>
  <circle class="pl-edge" cx="582" cy="378" r="16.5"/>
  <text class="pl-text pl-text--ink pl-text--body" x="582" y="384" text-anchor="middle">6</text>
  <path class="pl-line pl-thin" d="M310.2 360.3L311 358.8L311.9 357.4L312.8 356L313.8 354.7L315 353.4L316.1 352.2L317.4 351L318.8 349.9L320.2 348.9L321.7 347.9L323.3 347L324.9 346.1L326.6 345.3L328.4 344.5L330.2 343.8L332 343.1L333.9 342.5L335.9 341.9L337.9 341.4L340 340.9L342.1 340.5L344.2 340.2L346.4 339.9L348.5 339.6L350.8 339.4L353 339.2L355.3 339.1L357.6 339L359.9 338.9L362.2 339L364.5 339L366.9 339.1L369.2 339.3L371.6 339.5L373.9 339.7L376.3 340L378.6 340.3L381 340.6L383.3 341L385.6 341.5L387.9 342L390.1 342.5L392.4 343L394.6 343.6L396.8 344.3L399 344.9L401.1 345.7L403.2 346.4L405.3 347.2L407.3 348L409.3 348.9L411.2 349.8L413 350.7L414.9 351.7L416.6 352.7L418.3 353.7L420 354.8L421.5 355.8L423 357L424.5 358.1M498.2 364.2L497.4 363.4L496.6 362.7L495.9 361.9L495.1 361.2L494.4 360.6L493.7 359.9L493 359.3L492.3 358.7L491.6 358.1L490.9 357.6L490.2 357.1L489.6 356.6L488.9 356.1L488.3 355.7L487.7 355.3L487 354.9L486.4 354.6L485.8 354.2L485.2 353.9L484.6 353.6L484 353.4L483.4 353.1L482.8 352.9L482.3 352.8L481.7 352.6L481.1 352.5L480.5 352.4L480 352.3L479.4 352.2L478.8 352.2L478.2 352.2L477.7 352.2L477.1 352.2L476.5 352.3L476 352.4L475.4 352.5L474.8 352.6L474.2 352.8L473.6 353L473.1 353.2L472.5 353.4L471.9 353.7L471.3 353.9L470.7 354.2L470 354.6L469.4 354.9L468.8 355.3L468.1 355.7L467.5 356.1L466.8 356.5L466.2 357L465.5 357.5L464.8 358L464.1 358.5L463.4 359L462.7 359.6L462 360.2L461.2 360.8M579.3 358.7L578.3 353.1L577 347.8L575.3 342.6L573.4 337.6L571.1 332.9L568.5 328.3L565.6 323.9L562.4 319.8L559 315.8L555.2 312L551.3 308.4L547.1 305L542.6 301.8L537.9 298.7L533.1 295.9L528 293.2L522.7 290.8L517.2 288.5L511.6 286.4L505.8 284.4L499.8 282.7L493.7 281.1L487.5 279.7L481.1 278.5L474.6 277.5L468.1 276.6L461.4 275.9L454.6 275.4L447.8 275L440.9 274.8L434 274.8L427 275L420 275.3L413 275.8L405.9 276.4L398.9 277.2L391.8 278.2L384.8 279.3L377.8 280.6L370.9 282.1L364 283.7L357.1 285.4L350.3 287.3L343.6 289.4L337 291.6L330.5 294L324.1 296.5L317.8 299.2L311.7 302L305.7 304.9L299.8 308.1L294.1 311.3L288.6 314.7L283.2 318.2L278 321.9L273.1 325.7L268.3 329.7L263.8 333.8L259.5 338L255.4 342.3L251.6 346.8L248 351.5L244.8 356.2M149.1 356.4L148.7 355.2L148.4 354.1L148.2 353L148.1 352L148.1 351L148.1 350.1L148.2 349.2L148.4 348.3L148.7 347.5L149 346.7L149.4 345.9L149.8 345.2L150.3 344.6L150.9 344L151.5 343.4L152.1 342.9L152.8 342.4L153.5 341.9L154.3 341.5L155 341.2L155.8 340.9L156.7 340.6L157.5 340.4L158.4 340.2L159.3 340L160.2 339.9L161.1 339.9L162 339.8L162.9 339.9L163.8 339.9L164.7 340L165.6 340.2L166.5 340.4L167.3 340.6L168.2 340.9L169 341.2L169.7 341.5L170.5 341.9L171.2 342.4L171.9 342.9L172.5 343.4L173.1 344L173.7 344.6L174.2 345.2L174.6 345.9L175 346.7L175.3 347.5L175.6 348.3L175.8 349.2L175.9 350.1L175.9 351L175.9 352L175.8 353L175.6 354.1L175.3 355.2L174.9 356.4M210.2 363.6L209.4 362.8L208.7 361.9L208.1 361.1L207.5 360.3L207 359.5L206.6 358.6L206.3 357.8L206 357L205.8 356.2L205.6 355.4L205.5 354.7L205.5 353.9L205.5 353.1L205.6 352.4L205.7 351.7L205.9 351L206.2 350.3L206.4 349.7L206.7 349L207.1 348.4L207.5 347.8L207.9 347.3L208.4 346.7L208.9 346.2L209.4 345.8L210 345.3L210.5 344.9L211.1 344.6L211.8 344.2L212.4 344L213 343.7L213.7 343.5L214.4 343.3L215.1 343.2L215.8 343.1L216.5 343.1L217.2 343.1L217.9 343.2L218.6 343.3L219.3 343.5L220.1 343.7L220.7 344L221.4 344.3L222.1 344.7L222.8 345.2L223.4 345.7L224 346.3L224.6 346.9L225.2 347.7L225.8 348.4L226.3 349.3L226.8 350.2L227.3 351.2L227.7 352.2"/>
  <path class="pl-dot" d="M429.5 363.1L421.9 359L425.6 358.5L426.8 354.9ZM456.5 365L460.3 357.2L461 360.9L464.6 362ZM241.8 361.1L243 352.6L244.8 355.9L248.5 355.8ZM172.3 361.5L173.9 353L175.5 356.4L179.3 356.4ZM229.3 358.7L225 351.2L228.5 352.7L231.3 350.3Z"/>
  <path class="pl-line pl-line--key" d="M358.2 364.2L357.5 363.5L356.8 362.8L356.1 362.2L355.4 361.6L354.8 361L354.1 360.5L353.5 360L352.9 359.5L352.3 359.1L351.7 358.7L351.1 358.3L350.5 358L349.9 357.7L349.4 357.4L348.8 357.1L348.3 356.9L347.8 356.7L347.2 356.6L346.7 356.4L346.2 356.3L345.7 356.2L345.2 356.2L344.7 356.1L344.2 356.1L343.7 356.1L343.2 356.2L342.7 356.2L342.2 356.3L341.7 356.4L341.2 356.5L340.7 356.7L340.2 356.8L339.7 357L339.2 357.2L338.6 357.4L338.1 357.6L337.6 357.9L337.1 358.2L336.5 358.4L336 358.7L335.4 359L334.9 359.4L334.3 359.7L333.7 360.1L333.1 360.4L332.5 360.8L331.9 361.2L331.3 361.6L330.7 362L330 362.4L329.4 362.8L328.7 363.2L328 363.7L327.3 364.1L326.6 364.6L325.8 365L325.1 365.5L324.3 366"/>
  <path class="pl-dot pl-dot--key" d="M319.2 368.8L324.8 362.3L324.5 366L327.8 367.9Z"/>
  <path class="pl-line pl-line--key" d="M440 358.6L439.4 354.8L438.7 351L437.8 347.4L436.7 343.9L435.4 340.6L433.9 337.4L432.3 334.3L430.5 331.3L428.5 328.4L426.4 325.7L424.2 323.1L421.8 320.6L419.3 318.3L416.7 316.1L413.9 314L411.1 312L408.2 310.1L405.2 308.4L402.1 306.8L398.9 305.3L395.6 303.9L392.3 302.7L389 301.6L385.6 300.6L382.2 299.7L378.7 298.9L375.2 298.3L371.7 297.8L368.2 297.4L364.7 297.1L361.2 297L357.7 297L354.2 297L350.8 297.3L347.4 297.6L344 298.1L340.7 298.6L337.5 299.3L334.3 300.1L331.2 301.1L328.1 302.1L325.2 303.3L322.4 304.6L319.6 306L317 307.6L314.4 309.2L312 311L309.8 312.9L307.6 314.9L305.7 317L303.8 319.2L302.2 321.6L300.6 324.1L299.3 326.7L298.2 329.4L297.2 332.2L296.5 335.2L295.9 338.2L295.6 341.4L295.4 344.7L295.5 348.1L295.9 351.7"/>
  <path class="pl-dot pl-dot--key" d="M297.3 359.1L292.2 352.1L295.8 353.3L298.5 350.5Z"/>
  <text class="pl-text pl-text--key pl-text--large" x="128" y="384" text-anchor="end"><tspan class="pl-var">d</tspan></text>
  <text class="pl-text pl-text--ink pl-text--body" x="128" y="308" text-anchor="end"><tspan class="pl-var">x</tspan> ↦ <tspan class="pl-var">x</tspan><tspan class="pl-sup" dy="-0.42em">2</tspan></text>
  <text class="pl-text" x="128" y="328" text-anchor="end">mod 7</text>
  </g>
  <g class="pl-stage" data-stage="6">
  <path class="pl-line pl-line--key" d="M138 216L138 220L218 220L218 216"/>
  <text class="pl-text pl-text--key pl-text--body" x="200" y="237" text-anchor="middle"><tspan class="pl-var">d</tspan> + 2 = (<tspan class="pl-var">d</tspan><tspan class="pl-sup" dy="0.3em">0</tspan><tspan dy="-0.3em"> + 3)</tspan><tspan class="pl-sup" dy="-0.42em">2</tspan></text>
  <path class="pl-line pl-line--key" d="M436 216L436 220L516 220L516 216"/>
  <text class="pl-text pl-text--key pl-text--body" x="498" y="237" text-anchor="middle"><tspan class="pl-var">d</tspan> + 2 = 2(<tspan class="pl-var">d</tspan><tspan class="pl-sup" dy="0.3em">0</tspan><tspan dy="-0.3em"> − 1)</tspan><tspan class="pl-sup" dy="-0.42em">2</tspan></text>
  <path class="pl-axis" d="M162 397.5L162 438.5M232 397.5L232 438.5M302 397.5L302 438.5M512 397.5L512 438.5M582 397.5L582 438.5"/>
  <circle class="pl-ground" cx="162" cy="458" r="16.5"/>
  <circle class="pl-ground" cx="232" cy="458" r="16.5"/>
  <circle class="pl-ground" cx="302" cy="458" r="16.5"/>
  <circle class="pl-ground" cx="372" cy="458" r="16.5"/>
  <circle class="pl-ground" cx="442" cy="458" r="16.5"/>
  <circle class="pl-ground" cx="512" cy="458" r="16.5"/>
  <circle class="pl-ground" cx="582" cy="458" r="16.5"/>
  <path class="pl-hatch" d="M148.3 451.2L164 442.9M147 455.3L168.1 444M146.8 458.8L171.2 445.8M147.3 461.9L173.5 448M148.3 464.8L175.3 450.4M149.9 467.3L176.5 453.2M152.1 469.6L177.2 456.2M154.8 471.5L177.2 459.6M158.6 472.9L176.2 463.5M164.7 473L173 468.7M293.3 445.5L296.3 443.9M288.1 451.6L304.5 442.9M286.9 455.7L308.5 444.2M286.8 459.1L311.4 446M287.3 462.2L313.7 448.2M288.4 465L315.4 450.7M290.1 467.5L316.6 453.4M292.3 469.8L317.2 456.5M295.1 471.7L317.1 459.9M299 473L316.1 463.9M305.8 472.8L312.1 469.4M501.6 446.8L508.5 443.2M497.9 452.2L515.1 443.1M496.8 456.1L519 444.4M496.8 459.5L521.8 446.3M497.4 462.6L524 448.5M498.6 465.4L525.6 451M500.4 467.9L526.7 453.9M502.6 470.1L527.2 457M505.6 471.9L527.1 460.4M509.6 473.1L525.8 464.5M518.4 471.9L519.7 471.1M571.2 447.2L579 443M567.8 452.4L585.3 443.1M566.8 456.3L589.1 444.5M566.8 459.7L591.9 446.4M567.5 462.8L594 448.6M568.7 465.5L595.7 451.2M570.5 468L596.7 454M572.7 470.1L597.2 457.1M575.8 471.9L597.1 460.6M579.9 473.1L595.7 464.7"/>
  <circle class="pl-edge" cx="162" cy="458" r="16.5"/>
  <text class="pl-text pl-text--ink pl-text--body" x="162" y="464" text-anchor="middle">2</text>
  <circle class="pl-edge" cx="232" cy="458" r="16.5"/>
  <text class="pl-text pl-text--ink pl-text--body" x="232" y="464" text-anchor="middle">3</text>
  <circle class="pl-edge" cx="302" cy="458" r="16.5"/>
  <text class="pl-text pl-text--ink pl-text--body" x="302" y="464" text-anchor="middle">4</text>
  <circle class="pl-edge" cx="372" cy="458" r="16.5"/>
  <text class="pl-text pl-text--ink pl-text--body" x="372" y="464" text-anchor="middle">5</text>
  <circle class="pl-edge" cx="442" cy="458" r="16.5"/>
  <text class="pl-text pl-text--ink pl-text--body" x="442" y="464" text-anchor="middle">6</text>
  <circle class="pl-edge" cx="512" cy="458" r="16.5"/>
  <text class="pl-text pl-text--ink pl-text--body" x="512" y="464" text-anchor="middle">0</text>
  <circle class="pl-edge" cx="582" cy="458" r="16.5"/>
  <text class="pl-text pl-text--ink pl-text--body" x="582" y="464" text-anchor="middle">1</text>
  <path class="pl-line pl-line--key" d="M372 397.5L372 436.5"/>
  <path class="pl-line pl-line--key" d="M367.4 429.5L372 438.5L376.6 429.5"/>
  <circle class="pl-edge pl-edge--key pl-bold" cx="372" cy="458" r="16.5"/>
  <path class="pl-line pl-line--key" d="M442 397.5L442 436.5"/>
  <path class="pl-line pl-line--key" d="M437.4 429.5L442 438.5L446.6 429.5"/>
  <circle class="pl-edge pl-edge--key pl-bold" cx="442" cy="458" r="16.5"/>
  <text class="pl-text pl-text--key" x="407" y="423" text-anchor="middle">+2</text>
  <text class="pl-text pl-text--key pl-text--body" x="128" y="464" text-anchor="end"><tspan class="pl-var">d</tspan> + 2</text>
  </g>
</svg>
